<?xml version="1.0" ?><!DOCTYPE svg  PUBLIC '-//W3C//DTD SVG 1.1//EN'  'http://www.w3.org/Graphics/SVG/1.1/DTD/svg11.dtd'><svg height="512px" style="enable-background:new 0 0 512 512;" version="1.1" viewBox="0 0 512 512" width="512px" xml:space="preserve" xmlns="http://www.w3.org/2000/svg" xmlns:xlink="http://www.w3.org/1999/xlink"><g id="_x36_18_x2C__search_x2C___love_x2C__heart_x2C__wedding"><g><path d="M398.609,458.066h-199.35c-2.761,0-5-2.238-5-5s2.239-5,5-5h199.35c2.762,0,5,2.238,5,5    S401.371,458.066,398.609,458.066z" style="fill:#324B59;"/><path d="M117.787,373.903c10.01,0,18.12,8.11,18.12,18.12s-8.11,18.12-18.12,18.12    c-10.01,0-18.12-8.11-18.12-18.12S107.777,373.903,117.787,373.903z" style="fill:#EF3E5C;"/><path d="M120.787,385.153c6.28,0,11.81,3.194,15.061,8.045c0.025-0.39,0.059-0.778,0.059-1.175    c0-10.01-8.11-18.12-18.12-18.12c-10.01,0-18.12,8.11-18.12,18.12c0,3.729,1.128,7.194,3.059,10.075    C103.334,392.64,111.173,385.153,120.787,385.153z" style="fill:#E42A53;"/><path d="M144.977,53.934c10.01,0,18.12,8.11,18.12,18.12s-8.11,18.12-18.12,18.12    c-10.01,0-18.12-8.11-18.12-18.12S134.967,53.934,144.977,53.934z" style="fill:#EF3E5C;"/><path d="M147.977,65.184c6.28,0,11.81,3.194,15.061,8.045c0.025-0.39,0.059-0.778,0.059-1.175    c0-10.01-8.11-18.12-18.12-18.12c-10.01,0-18.12,8.11-18.12,18.12c0,3.729,1.128,7.194,3.059,10.075    C130.524,72.67,138.363,65.184,147.977,65.184z" style="fill:#E42A53;"/><path d="M387.803,212.6c10.01,0,18.12,8.11,18.12,18.12s-8.11,18.12-18.12,18.12    c-10.011,0-18.12-8.11-18.12-18.12S377.792,212.6,387.803,212.6z" style="fill:#EF3E5C;"/><path d="M390.803,223.85c6.279,0,11.81,3.194,15.061,8.045c0.025-0.39,0.06-0.778,0.06-1.175    c0-10.01-8.11-18.12-18.12-18.12c-10.011,0-18.12,8.11-18.12,18.12c0,3.729,1.128,7.194,3.059,10.075    C373.35,231.336,381.188,223.85,390.803,223.85z" style="fill:#E42A53;"/><path d="M231.037,200.914c12.53,0,22.67,10.34,22.67,23.08c0,23.08-22.67,36.219-45.32,59.299    c-22.65-23.08-45.29-36.219-45.29-59.299c0-12.74,10.14-23.08,22.64-23.08c11.33,0,16.99,5.77,22.65,17.31    C214.047,206.684,219.707,200.914,231.037,200.914z" style="fill:#EF3E5C;"/><g><g><g><path d="M176.764,228.994c0-12.74,10.14-23.08,22.64-23.08c0.193,0,0.373,0.015,0.563,0.019       c-3.694-3.335-8.139-5.019-14.229-5.019c-12.5,0-22.64,10.34-22.64,23.08c0,23.08,22.64,36.219,45.29,59.299       c1.402-1.428,2.804-2.818,4.201-4.176C193.5,261.337,176.764,248.836,176.764,228.994z" style="fill:#E42A53;"/></g></g></g><path d="M272.478,171.943c32.271,32.28,35.1,82.84,8.5,118.34c-2.57,3.41-5.4,6.69-8.5,9.801    c-3.11,3.109-6.39,5.939-9.811,8.5c-35.49,26.609-86.06,23.779-118.34-8.5c-35.39-35.381-35.39-92.76,0-128.141    C179.717,136.554,237.087,136.554,272.478,171.943z M253.707,223.994c0-12.74-10.14-23.08-22.67-23.08    c-11.33,0-16.99,5.77-22.65,17.31c-5.66-11.54-11.32-17.31-22.65-17.31c-12.5,0-22.64,10.34-22.64,23.08    c0,23.08,22.64,36.219,45.29,59.299C231.037,260.213,253.707,247.074,253.707,223.994z" style="fill:#CAE8FB;"/><g><path d="M149.327,184.943c35.39-35.39,92.76-35.39,128.15,0c7.537,7.54,13.447,16.084,17.772,25.193     c-4.15-13.979-11.738-27.156-22.772-38.193c-35.391-35.39-92.76-35.39-128.15,0c-27.853,27.845-33.769,69.311-17.781,102.961     C117.38,244.058,124.972,209.292,149.327,184.943z" style="fill:#AFD5E8;"/></g><path d="M298.098,146.313c45.189,45.19,49.15,115.979,11.9,165.67c-3.58,4.79-7.54,9.38-11.9,13.73    c-4.35,4.35-8.94,8.31-13.73,11.899c-49.68,37.25-120.48,33.29-165.67-11.899c-49.54-49.54-49.54-129.86,0-179.4    S248.557,96.773,298.098,146.313z M280.978,290.283c26.6-35.5,23.771-86.06-8.5-118.34c-35.391-35.39-92.76-35.39-128.15,0    c-35.39,35.38-35.39,92.76,0,128.141c32.28,32.279,82.85,35.109,118.34,8.5c3.421-2.561,6.7-5.391,9.811-8.5    C275.577,296.974,278.407,293.693,280.978,290.283z" style="fill:#8AD7F8;"/><g><path d="M124.996,158.98c49.54-49.54,129.86-49.54,179.401,0c8.233,8.234,15.092,17.32,20.588,26.971     c-6.175-14.396-15.133-27.884-26.887-39.638c-49.541-49.54-129.86-49.54-179.4,0c-41.298,41.298-48.161,103.984-20.604,152.399     C78.253,252.435,87.217,196.759,124.996,158.98z" style="fill:#6DC4E2;"/></g><path d="M298.098,325.714c4.36-4.351,8.32-8.94,11.9-13.73l26.55,26.55l-25.63,25.631l-26.551-26.551    C289.157,334.023,293.748,330.063,298.098,325.714z" style="fill:#B0B7DC;"/><path d="M295.25,338.28c4.79-3.59,9.381-7.55,13.73-11.899c2.603-2.597,5.046-5.289,7.367-8.048l-6.35-6.35    c-3.58,4.79-7.54,9.38-11.9,13.73c-4.35,4.35-8.94,8.31-13.73,11.899l26.551,26.551l5.107-5.108L295.25,338.28z" style="fill:#97A1C9;"/><path d="M419.838,396.193c7.08,7.08,10.62,16.36,10.62,25.63c0,9.28-3.54,18.551-10.62,25.63    c-14.15,14.15-37.101,14.15-51.261,0l-70.479-70.479l12.82-12.81l25.63-25.631l12.81-12.819L419.838,396.193z M394.208,421.823    c3.54-3.54,3.54-9.279,0-12.81c-3.54-3.54-9.271-3.54-12.811,0c-3.54,3.53-3.54,9.27,0,12.81S390.668,425.363,394.208,421.823z" style="fill:#415A6B;"/><g><path d="M383.042,447.443l-70.479-70.479l12.82-12.81l25.63-25.631l5.575-5.579l-7.23-7.23l-12.81,12.819     l-25.63,25.631l-12.82,12.81l70.479,70.479c8.937,8.93,21.372,12.218,32.889,9.877     C394.716,455.967,388.277,452.676,383.042,447.443z" style="fill:#324B59;"/></g><path d="M394.208,409.014c3.54,3.53,3.54,9.27,0,12.81s-9.271,3.54-12.811,0s-3.54-9.279,0-12.81    C384.938,405.474,390.668,405.474,394.208,409.014z" style="fill:#324B59;"/></g></g><g id="Layer_1"/></svg>