<?xml version="1.0" ?><!DOCTYPE svg  PUBLIC '-//W3C//DTD SVG 1.1//EN'  'http://www.w3.org/Graphics/SVG/1.1/DTD/svg11.dtd'><svg height="512px" style="enable-background:new 0 0 512 512;" version="1.1" viewBox="0 0 512 512" width="512px" xml:space="preserve" xmlns="http://www.w3.org/2000/svg" xmlns:xlink="http://www.w3.org/1999/xlink"><g id="_x37_01_x2C__brokan_x2C__love_x2C__heart_x2C__wedding"><g><path d="M455.76,167.57c0.46,3.8,0.721,7.649,0.721,11.569c0,19.511-3.99,37.351-11.16,54.19    c-9.91,23.25-25.9,44.59-45.88,65.76c-20.271,21.47-44.631,42.78-70.931,65.75c-23.189,20.27-47.88,41.84-72.57,65.97L256,340.05    l-27.181-45.3l54.36-54.37l-63.43-45.31l31.609-45.3c25.061-48.98,54.69-68.58,104.801-68.58    C407.58,81.19,449.9,118.95,455.76,167.57z" style="fill:#EF3E5C;"/><path d="M273.451,414.094l0.049-73.371l-27.181-45.3l54.36-54.37l-63.43-45.31l31.609-45.3    c24.177-47.254,52.613-67.155,99.584-68.5c-4.028-0.48-8.122-0.753-12.283-0.753c-50.11,0-79.74,19.6-104.801,68.58l-31.609,45.3    l63.43,45.31l-54.36,54.37L256,340.05l-0.061,90.76C261.784,425.099,267.627,419.535,273.451,414.094z" style="fill:#D83659;"/><path d="M101.96,340.05c10.01,0,18.12,8.12,18.12,18.13s-8.11,18.12-18.12,18.12s-18.12-8.11-18.12-18.12    S91.95,340.05,101.96,340.05z" style="fill:#BE0000;"/><path d="M88.84,368.18c0-10.01,8.11-18.13,18.12-18.13c5.047,0,9.607,2.067,12.893,5.397    c-1.32-8.711-8.813-15.397-17.893-15.397c-10.01,0-18.12,8.12-18.12,18.13c0,4.962,1.997,9.454,5.227,12.726    C88.932,370.015,88.84,369.108,88.84,368.18z" style="fill:#A10000;"/><path d="M283.18,240.38l-54.36,54.37L256,340.05l-0.061,90.76c-24.68-24.13-49.37-45.7-72.55-65.97    c-26.28-22.97-50.63-44.28-70.88-65.75c-19.97-21.17-35.94-42.51-45.84-65.76c-7.16-16.84-11.15-34.68-11.15-54.19    c0-3.92,0.26-7.77,0.721-11.569c5.859-48.62,48.17-86.38,99.489-86.38c50.11,0,70.58,19.6,95.63,68.58l-31.609,45.3L283.18,240.38    z" style="fill:#BE0000;"/><path d="M207.89,373.96c-26.28-22.97-50.63-44.28-70.88-65.75c-19.97-21.17-35.94-42.51-45.84-65.76    c-7.16-16.84-11.15-34.68-11.15-54.19c0-3.92,0.26-7.77,0.721-11.569c5.859-48.62,48.17-86.38,99.489-86.38    c9.678,0,18.241,0.74,25.954,2.272c-13.218-7.834-29.152-11.393-50.454-11.393c-51.319,0-93.63,37.76-99.489,86.38    c-0.461,3.8-0.721,7.649-0.721,11.569c0,19.511,3.99,37.351,11.15,54.19c9.899,23.25,25.87,44.59,45.84,65.76    c20.25,21.47,44.6,42.78,70.88,65.75c23.18,20.27,47.87,41.84,72.55,65.97l0.01-14.073    C239.558,401.647,223.386,387.51,207.89,373.96z" style="fill:#A10000;"/><path d="M382.39,392.55c10.011,0,18.12,8.12,18.12,18.13s-8.109,18.12-18.12,18.12    c-10.01,0-18.12-8.11-18.12-18.12S372.38,392.55,382.39,392.55z" style="fill:#EF3E5C;"/><path d="M369.27,420.68c0-10.01,8.11-18.13,18.12-18.13c5.048,0,9.607,2.067,12.893,5.397    c-1.319-8.711-8.813-15.397-17.893-15.397c-10.01,0-18.12,8.12-18.12,18.13c0,4.962,1.997,9.454,5.227,12.726    C369.361,422.515,369.27,421.608,369.27,420.68z" style="fill:#D83659;"/><path d="M387.39,181.95c-2.762,0-5-2.239-5-5v-27.18c0-2.762,2.238-5,5-5s5,2.238,5,5v27.18    C392.39,179.711,390.151,181.95,387.39,181.95z" style="fill:#FFC230;"/><path d="M400.98,168.36H373.8c-2.762,0-5-2.239-5-5c0-2.762,2.238-5,5-5h27.181c2.762,0,5,2.238,5,5    C405.98,166.121,403.742,168.36,400.98,168.36z" style="fill:#FFC230;"/></g></g><g id="Layer_1"/></svg>