<?xml version="1.0" ?><!DOCTYPE svg  PUBLIC '-//W3C//DTD SVG 1.1//EN'  'http://www.w3.org/Graphics/SVG/1.1/DTD/svg11.dtd'><svg height="512px" style="enable-background:new 0 0 512 512;" version="1.1" viewBox="0 0 512 512" width="512px" xml:space="preserve" xmlns="http://www.w3.org/2000/svg" xmlns:xlink="http://www.w3.org/1999/xlink"><g id="_x32_8_x2C__CSS_x2C__File_Type_x2C__Style_x2C__Sheet"><g><path d="M426.593,112.714V458.81H125.65V200.391h183.182V94.625H125.65V53.191h241.616l0.043,0.054    l-0.043,0.043l0.545,59.469l58.335-0.044l0.229-0.218L426.593,112.714z" style="fill:#006EBD;"/><rect height="58.881" style="fill:#2AB7E8;" width="58.88" x="289.206" y="361.766"/><rect height="58.88" style="fill:#2AB7E8;" width="58.88" x="230.326" y="302.886"/><rect height="58.881" style="fill:#1BA7E2;" width="58.88" x="230.326" y="361.766"/><rect height="58.881" style="fill:#2AB7E8;" width="58.88" x="171.446" y="361.766"/><rect height="58.88" style="fill:#1BA7E2;" width="58.88" x="171.446" y="302.886"/><rect height="58.88" style="fill:#2AB7E8;" width="58.88" x="171.446" y="244.006"/><polygon points="367.309,53.245 426.374,112.496 426.146,112.714 367.811,112.758 367.266,53.289   " style="fill:#1BA7E2;"/><path d="M125.65,95h-0.447H86v105h39.203h0.447H308V95H125.65z" style="fill:#1BA7E2;"/><g><path d="M243.247,142.983c-6.444-2.442-9.257-3.849-9.257-7.033c0-2.595,2.366-4.819,7.251-4.819     c4.896,0,8.45,1.407,10.446,2.366l2.519-9.104c-2.965-1.33-7.109-2.519-12.735-2.519c-11.776,0-18.886,6.521-18.886,15.036     c0,7.251,5.408,11.853,13.695,14.731c6.008,2.147,8.374,3.925,8.374,7.043c0,3.25-2.737,5.408-7.927,5.408     c-4.809,0-9.475-1.559-12.517-3.118l-2.29,9.333c2.813,1.559,8.439,3.042,14.142,3.042c13.707,0,20.151-7.121,20.151-15.483     C256.211,150.833,252.057,146.232,243.247,142.983z" style="fill:#006EBD;"/><path d="M203.251,142.983c-6.444-2.442-9.257-3.849-9.257-7.033c0-2.595,2.366-4.819,7.262-4.819     c4.885,0,8.439,1.407,10.435,2.366l2.519-9.104c-2.955-1.33-7.109-2.519-12.735-2.519c-9.574,0-16.051,4.307-18.155,10.489     c-0.479,1.428-0.73,2.955-0.73,4.546c0,7.251,5.408,11.853,13.695,14.731c6.008,2.147,8.374,3.925,8.374,7.043     c0,3.25-2.736,5.408-7.927,5.408c-4.809,0-9.476-1.559-12.518-3.118l-2.29,9.333c2.813,1.559,8.44,3.042,14.143,3.042     c13.706,0,20.15-7.121,20.15-15.483C216.216,150.833,212.062,146.232,203.251,142.983z" style="fill:#006EBD;"/><path d="M165.252,131.207c4.002,0,7.186,0.883,9.486,1.854l0.698-2.715l1.592-6.248     c-1.996-1.036-6.444-2.224-12.289-2.224c-15.112,0-27.259,9.475-27.259,26.518c0,14.219,8.887,24.959,26.147,24.959     c6.073,0,10.74-1.112,12.812-2.159l-1.701-8.81c-2.224,0.894-5.997,1.636-9.41,1.636c-10.075,0-15.996-6.303-15.996-16.302     C149.333,136.604,156.29,131.207,165.252,131.207z" style="fill:#006EBD;"/></g></g></g><g id="Layer_1"/></svg>